#!OML:ASF X:\für Bonn\!DataBase\2005_08_12_Daniel\c3d\Daniel.ASF
:FULLY-SPECIFIED
:DEGREES
1
root -0.800764 17.3968 1.50994 166.113 2.02215 -179.799
lowerback 15.9055 -0.307947 1.54017
upperback 4.51023 0.377619 -2.24885
thorax -4.09607 0.465427 -3.33951
lowerneck 5.27947 -0.669135 -6.00369
upperneck 14.4794 0.914714 -3.49735
head 3.82921 0.639699 -0.0671048
rclavicle 5.93869e-015 -3.81667e-014
rhumerus 138.562 -194.93 -282.427
rradius 90.9522
rwrist -50.7687
rhand -8.48053 20.8451
rfingers 7.12502
rthumb 17.4464 -8.392
lclavicle 5.93869e-015 -3.81667e-014
lhumerus -48.3281 43.5027 52.867
lradius 18.0871
lwrist -40.503
lhand -12.9975 -4.49141
lfingers 7.12502
lthumb 13.0956 25.0774
rfemur 2.39472 -4.26491 13.4359
rtibia 60.5329
rfoot 0.568406 5.75486
rtoes -14.2791
lfemur -8.0633 -12.5226 -21.7823
ltibia 36.8859
lfoot -14.245 3.97524
ltoes -9.93554
2
root -0.81455 17.408 1.43626 166.164 1.98841 -179.627
lowerback 15.8955 -0.393461 1.58437
upperback 4.54905 0.276868 -2.19611
thorax -4.05674 0.417541 -3.28886
lowerneck 5.20366 -0.687725 -6.01767
upperneck 14.6419 0.906931 -3.43077
head 3.90206 0.634925 -0.0422107
rclavicle 4.99446e-015 -1.03368e-014
rhumerus 138.794 -194.893 -282.331
rradius 90.6987
rwrist -50.6195
rhand -8.41551 20.7405
rfingers 7.12502
rthumb 17.509 -8.49098
lclavicle 4.99446e-015 -1.03368e-014
lhumerus -46.8769 42.112 54.9015
lradius 18.657
lwrist -38.1975
lhand -13.1569 -4.37327
lfingers 7.12502
lthumb 12.942 25.2054
rfemur 1.60719 -4.56188 13.6151
rtibia 60.2863
rfoot -0.0041505 5.85357
rtoes -13.7682
lfemur -7.8239 -12.5957 -21.7273
ltibia 36.9139
lfoot -14.5422 3.99764
ltoes -9.88016
3
root -0.827086 17.4247 1.36459 166.204 1.93688 -179.49
lowerback 15.9107 -0.4786 1.56695
upperback 4.58765 0.168554 -2.13206
thorax -4.03181 0.366285 -3.19019
lowerneck 5.073 -0.701862 -6.04395
upperneck 14.8756 0.923822 -3.38558
head 4.01149 0.641178 -0.0213553
rclavicle 6.83322e-015 -5.56597e-015
rhumerus 138.961 -194.856 -282.235
rradius 90.491
rwrist -50.4839
rhand -8.34126 20.6533
rfingers 7.12502
rthumb 17.5805 -8.57188
lclavicle 6.83322e-015 -5.56597e-015
lhumerus -45.537 40.7372 56.835
lradius 19.2287
lwrist -36.0263
lhand -13.2702 -4.31862
lfingers 7.12502
lthumb 12.8327 25.2669
rfemur 0.914646 -4.81086 13.7874
rtibia 59.8896
rfoot -0.63811 5.96468
rtoes -13.4022
lfemur -7.5767 -12.6114 -21.7012
ltibia 36.9288
lfoot -14.7998 3.9697
ltoes -9.79907
4
root -0.84008 17.4326 1.29662 166.275 1.86326 -179.335
lowerback 15.8915 -0.565793 1.596
upperback 4.62253 0.0626691 -2.07657
thorax -3.99182 0.315622 -3.12709
lowerneck 5.04868 -0.71401 -6.0365
upperneck 14.9966 0.921993 -3.34765
head 4.06011 0.641658 -0.0096672
rclavicle -1.06847e-015 1.35174e-014
rhumerus 139.073 -194.778 -282.143
rradius 90.3534
rwrist -50.3759
rhand -8.25544 20.5249
rfingers 7.12502
rthumb 17.663 -8.6928
lclavicle -1.06847e-015 1.35174e-014
lhumerus -44.2515 39.2486 58.736
lradius 19.8746
lwrist -33.8785
lhand -13.2963 -4.34806
lfingers 7.12502
lthumb 12.8076 25.2391
rfemur 0.232831 -5.08245 13.9632
rtibia 59.4071
rfoot -1.32761 6.11292
rtoes -12.8459
lfemur -7.40544 -12.6586 -21.6476
ltibia 36.9705
lfoot -15.0595 3.92835
ltoes -9.80152
5
root -0.85225 17.4394 1.23115 166.348 1.78825 -179.214
lowerback 15.885 -0.646864 1.57057
upperback 4.64544 -0.0445587 -2.00887
thorax -3.97111 0.263373 -3.02016
lowerneck 5.04127 -0.722369 -6.10268
upperneck 15.1553 0.928948 -3.27593
head 4.11991 0.645867 0.0263229
rclavicle 4.07509e-015 2.14687e-014
rhumerus 139.12 -194.716 -282.055
rradius 90.2214
rwrist -50.3122
rhand -8.14632 20.4173
rfingers 7.12502
rthumb 17.768 -8.79094
lclavicle 4.07509e-015 2.14687e-014
lhumerus -43.1358 37.8247 60.4769
lradius 20.5316
lwrist -31.9553
lhand -13.3071 -4.49437
lfingers 7.12502
lthumb 12.7972 25.0934
rfemur -0.411396 -5.3091 14.1209
rtibia 58.8406
rfoot -2.0617 6.2699
rtoes -12.2925
lfemur -7.25512 -12.7177 -21.6285
ltibia 37.0366
lfoot -15.3463 3.91059
ltoes -9.67939
6
root -0.863176 17.4439 1.16798 166.427 1.709 -179.097
lowerback 15.8666 -0.721878 1.56553
upperback 4.68144 -0.139149 -1.96468
thorax -3.92919 0.218861 -2.95204
lowerneck 5.02317 -0.743424 -6.10816
upperneck 15.2864 0.911643 -3.20588
head 4.1715 0.639285 0.050781
rclavicle -8.05078e-015 -1.51076e-014
rhumerus 139.177 -194.646 -281.976
rradius 90.124
rwrist -50.2628
rhand -8.10224 20.3279
rfingers 7.12502
rthumb 17.8105 -8.87647
lclavicle -8.05078e-015 -1.51076e-014
lhumerus -42.0529 36.3743 62.1263
lradius 21.2185
lwrist -30.2209
lhand -13.258 -4.7738
lfingers 7.12502
lthumb 12.8445 24.811
rfemur -1.02526 -5.4836 14.2943
rtibia 58.192
rfoot -2.83903 6.38508
rtoes -11.65
lfemur -7.13351 -12.7453 -21.6059
ltibia 37.1301
lfoot -15.5972 3.86987
ltoes -9.62892
7
root -0.87426 17.4442 1.10773 166.501 1.60857 -178.991
lowerback 15.8707 -0.808095 1.54817
upperback 4.714 -0.249976 -1.91892
thorax -3.90366 0.166207 -2.87254
lowerneck 5.03981 -0.74993 -6.12702
upperneck 15.4089 0.915087 -3.14505
head 4.21345 0.64392 0.0748439
rclavicle 2.5345e-015 2.06736e-014
rhumerus 139.193 -194.592 -281.924
rradius 90.0393
rwrist -50.2137
rhand -8.04232 20.1553
rfingers 7.12502
rthumb 17.8681 -9.04385
lclavicle 2.5345e-015 2.06736e-014
lhumerus -41.0996 35.0228 63.6249
lradius 21.9435
lwrist -28.7141
lhand -13.1582 -4.98441
lfingers 7.12502
lthumb 12.9407 24.5943
rfemur -1.61219 -5.63378 14.4445
rtibia 57.4878
rfoot -3.6128 6.51171
rtoes -10.997
lfemur -7.02747 -12.8235 -21.5979
ltibia 37.2256
lfoot -15.852 3.84328
ltoes -9.64132
